<svg xmlns="http://www.w3.org/2000/svg" viewBox="0 0 50 50" fill="#50bebf"><path d="M.906-.031C.863-.023.82-.011.781 0A.994.994 0 0 0 0 .703c-.105.367.004.758.281 1.016l48 48c.399.398 1.04.398 1.438 0a1.014 1.014 0 0 0 0-1.438L43.437 42h.876C47.413 42 50 39.414 50 36.312V13.689C50 10.585 47.414 8 44.312 8h-7.718L35 5.406C34.102 3.906 32.488 3 30.687 3H19.313c-1.699 0-3.414.906-4.312 2.406L13.406 8H9.437L1.72.281A1.004 1.004 0 0 0 .906-.03zM19.313 5h11.5c1 0 1.992.602 2.593 1.5L35.5 10h8.906c2 0 3.688 1.688 3.688 3.688v22.624c0 2-1.688 3.688-3.688 3.688h-2.968l-6.626-6.625A12.658 12.658 0 0 0 38 25c0-7.2-5.8-13-13-13-3.184 0-6.145 1.21-8.438 3.125L11.438 10h3.157l2.094-3.5c.5-.898 1.523-1.5 2.625-1.5zm-15.5 3.313C1.612 9.113 0 11.187 0 13.686v22.626C0 39.413 2.586 42 5.688 42H37.5l-2-2H5.687C3.688 40 2 38.312 2 36.312V13.689c0-2 1.602-3.586 3.5-3.688zM25 13.905c6.102 0 11 4.899 11 11 0 2.688-1.012 5.09-2.625 7.032l-1.688-1.688C32.81 28.797 33.5 26.977 33.5 25c0-4.7-3.8-8.5-8.5-8.5-1.977 0-3.797.691-5.25 1.813L17.937 16.5A10.976 10.976 0 0 1 25 13.906zm-11.188 4.406c-1.199 2-1.906 4.188-1.906 6.688.102 7.2 5.895 13 13.094 13 2.398 0 4.688-.707 6.688-1.906l-1.5-1.5C28.688 35.492 26.898 36 25 36c-6.102 0-11-4.898-11-11 0-1.898.512-3.688 1.313-5.188zM25 18.5c3.602 0 6.5 2.898 6.5 6.5 0 1.453-.492 2.746-1.25 3.813l-9.094-9.094c1.07-.774 2.38-1.219 3.844-1.219zm-7.906 3.094c-.399 1-.688 2.21-.688 3.312.102 4.801 3.895 8.594 8.594 8.594 1.2 0 2.313-.188 3.313-.688l-1.625-1.624c-.602.199-1.18.312-1.782.312a6.485 6.485 0 0 1-6.5-6.5c0-.602.082-1.21.282-1.813z"/></svg>